<mxfile host="app.diagrams.net" modified="2022-02-08T06:29:25.769Z" agent="5.0 (Windows NT 10.0; Win64; x64) AppleWebKit/537.36 (KHTML, like Gecko) Chrome/98.0.4758.80 Safari/537.36 Edg/98.0.1108.43" etag="DmT1iJqg7cL05e-TCg11" version="16.5.3" type="github">
  <diagram id="VzmbroPTE8UdespfuydO" name="Page-1">
    <mxGraphModel dx="800" dy="434" grid="1" gridSize="10" guides="1" tooltips="1" connect="1" arrows="1" fold="1" page="1" pageScale="1" pageWidth="850" pageHeight="1100" math="0" shadow="0">
      <root>
        <mxCell id="0" />
        <mxCell id="1" parent="0" />
        <mxCell id="t8yH6pK6eBGHs_cduZfa-1" value="Relationship" style="shape=rhombus;double=1;perimeter=rhombusPerimeter;whiteSpace=wrap;html=1;align=center;rounded=1;" parent="1" vertex="1">
          <mxGeometry x="350" y="400" width="120" height="60" as="geometry" />
        </mxCell>
        <mxCell id="t8yH6pK6eBGHs_cduZfa-2" value="&lt;span style=&quot;border-bottom: 1px dotted&quot;&gt;Attribute&lt;/span&gt;" style="ellipse;whiteSpace=wrap;html=1;align=center;rounded=1;" parent="1" vertex="1">
          <mxGeometry x="630" y="440" width="100" height="40" as="geometry" />
        </mxCell>
        <mxCell id="t8yH6pK6eBGHs_cduZfa-31" value="" style="edgeStyle=orthogonalEdgeStyle;orthogonalLoop=1;jettySize=auto;html=1;" parent="1" source="t8yH6pK6eBGHs_cduZfa-3" target="t8yH6pK6eBGHs_cduZfa-8" edge="1">
          <mxGeometry relative="1" as="geometry" />
        </mxCell>
        <mxCell id="t8yH6pK6eBGHs_cduZfa-32" value="" style="edgeStyle=orthogonalEdgeStyle;rounded=1;orthogonalLoop=1;jettySize=auto;html=1;" parent="1" source="t8yH6pK6eBGHs_cduZfa-3" target="t8yH6pK6eBGHs_cduZfa-26" edge="1">
          <mxGeometry relative="1" as="geometry" />
        </mxCell>
        <mxCell id="t8yH6pK6eBGHs_cduZfa-3" value="Attribute" style="ellipse;whiteSpace=wrap;html=1;align=center;dashed=1;rounded=1;" parent="1" vertex="1">
          <mxGeometry x="460" y="320" width="100" height="40" as="geometry" />
        </mxCell>
        <mxCell id="t8yH6pK6eBGHs_cduZfa-4" value="Attribute" style="ellipse;whiteSpace=wrap;html=1;align=center;dashed=1;rounded=1;" parent="1" vertex="1">
          <mxGeometry x="230" y="310" width="100" height="40" as="geometry" />
        </mxCell>
        <mxCell id="t8yH6pK6eBGHs_cduZfa-5" value="Attribute" style="ellipse;whiteSpace=wrap;html=1;align=center;dashed=1;rounded=1;" parent="1" vertex="1">
          <mxGeometry x="170" y="430" width="100" height="40" as="geometry" />
        </mxCell>
        <mxCell id="t8yH6pK6eBGHs_cduZfa-29" value="" style="edgeStyle=orthogonalEdgeStyle;orthogonalLoop=1;jettySize=auto;html=1;targetPerimeterSpacing=34;" parent="1" source="t8yH6pK6eBGHs_cduZfa-6" target="t8yH6pK6eBGHs_cduZfa-28" edge="1">
          <mxGeometry relative="1" as="geometry" />
        </mxCell>
        <mxCell id="t8yH6pK6eBGHs_cduZfa-6" value="Entity" style="shape=ext;margin=3;double=1;whiteSpace=wrap;html=1;align=center;rounded=1;" parent="1" vertex="1">
          <mxGeometry x="280" y="520" width="100" height="40" as="geometry" />
        </mxCell>
        <mxCell id="t8yH6pK6eBGHs_cduZfa-7" value="Entity" style="arcSize=10;whiteSpace=wrap;html=1;align=center;rounded=1;" parent="1" vertex="1">
          <mxGeometry x="170" y="360" width="100" height="40" as="geometry" />
        </mxCell>
        <mxCell id="t8yH6pK6eBGHs_cduZfa-30" value="" style="edgeStyle=orthogonalEdgeStyle;orthogonalLoop=1;jettySize=auto;html=1;" parent="1" source="t8yH6pK6eBGHs_cduZfa-8" target="t8yH6pK6eBGHs_cduZfa-2" edge="1">
          <mxGeometry relative="1" as="geometry" />
        </mxCell>
        <mxCell id="t8yH6pK6eBGHs_cduZfa-8" value="Entity" style="whiteSpace=wrap;html=1;align=center;points=[[0,0,0,0,0],[0,0.25,0,0,0],[0,0.5,0,0,0],[0,0.75,0,0,0],[0,1,0,0,0],[0.25,0,0,0,0],[0.25,1,0,0,0],[0.5,0,0,0,0],[0.5,1,0,0,0],[0.75,0,0,0,0],[0.75,1,0,0,0],[1,0,0,0,0],[1,0.25,0,0,0],[1,0.5,0,0,0],[1,0.75,0,0,0],[1,1,0,0,0]];rounded=1;" parent="1" vertex="1">
          <mxGeometry x="630" y="320" width="100" height="40" as="geometry" />
        </mxCell>
        <mxCell id="t8yH6pK6eBGHs_cduZfa-34" value="" style="edgeStyle=orthogonalEdgeStyle;rounded=1;orthogonalLoop=1;jettySize=auto;html=1;" parent="1" source="t8yH6pK6eBGHs_cduZfa-9" target="t8yH6pK6eBGHs_cduZfa-33" edge="1">
          <mxGeometry relative="1" as="geometry" />
        </mxCell>
        <mxCell id="t8yH6pK6eBGHs_cduZfa-36" value="" style="edgeStyle=orthogonalEdgeStyle;rounded=1;orthogonalLoop=1;jettySize=auto;html=1;" parent="1" source="t8yH6pK6eBGHs_cduZfa-9" target="t8yH6pK6eBGHs_cduZfa-35" edge="1">
          <mxGeometry relative="1" as="geometry" />
        </mxCell>
        <mxCell id="t8yH6pK6eBGHs_cduZfa-9" value="Attribute" style="ellipse;shape=doubleEllipse;margin=3;whiteSpace=wrap;html=1;align=center;rounded=1;" parent="1" vertex="1">
          <mxGeometry x="450" y="470" width="100" height="40" as="geometry" />
        </mxCell>
        <mxCell id="t8yH6pK6eBGHs_cduZfa-27" value="" style="edgeStyle=orthogonalEdgeStyle;orthogonalLoop=1;jettySize=auto;html=1;targetPerimeterSpacing=34;" parent="1" source="t8yH6pK6eBGHs_cduZfa-10" target="t8yH6pK6eBGHs_cduZfa-26" edge="1">
          <mxGeometry relative="1" as="geometry" />
        </mxCell>
        <mxCell id="t8yH6pK6eBGHs_cduZfa-10" value="" style="line;strokeWidth=1;rotatable=0;dashed=0;labelPosition=right;align=left;verticalAlign=middle;spacingTop=0;spacingLeft=6;points=[];portConstraint=eastwest;rounded=1;" parent="1" vertex="1">
          <mxGeometry x="420" y="250" width="30" height="10" as="geometry" />
        </mxCell>
        <mxCell id="t8yH6pK6eBGHs_cduZfa-11" value="" style="shape=table;startSize=0;container=1;collapsible=1;childLayout=tableLayout;fixedRows=1;rowLines=0;fontStyle=0;align=center;resizeLast=1;strokeColor=none;fillColor=none;collapsible=0;rounded=1;arcSize=0;" parent="1" vertex="1">
          <mxGeometry x="340" y="340" width="180" height="30" as="geometry" />
        </mxCell>
        <mxCell id="t8yH6pK6eBGHs_cduZfa-12" value="" style="shape=tableRow;horizontal=0;startSize=0;swimlaneHead=0;swimlaneBody=0;fillColor=none;collapsible=0;dropTarget=0;points=[[0,0.5],[1,0.5]];portConstraint=eastwest;top=0;left=0;right=0;bottom=0;rounded=1;" parent="t8yH6pK6eBGHs_cduZfa-11" vertex="1">
          <mxGeometry width="180" height="30" as="geometry" />
        </mxCell>
        <mxCell id="t8yH6pK6eBGHs_cduZfa-13" value="FK" style="shape=partialRectangle;connectable=0;fillColor=none;top=0;left=0;bottom=0;right=0;fontStyle=0;overflow=hidden;rounded=1;" parent="t8yH6pK6eBGHs_cduZfa-12" vertex="1">
          <mxGeometry width="30" height="30" as="geometry">
            <mxRectangle width="30" height="30" as="alternateBounds" />
          </mxGeometry>
        </mxCell>
        <mxCell id="t8yH6pK6eBGHs_cduZfa-14" value="UniqueID" style="shape=partialRectangle;connectable=0;fillColor=none;top=0;left=0;bottom=0;right=0;align=left;spacingLeft=6;fontStyle=0;overflow=hidden;rounded=1;" parent="t8yH6pK6eBGHs_cduZfa-12" vertex="1">
          <mxGeometry x="30" width="150" height="30" as="geometry">
            <mxRectangle width="150" height="30" as="alternateBounds" />
          </mxGeometry>
        </mxCell>
        <mxCell id="t8yH6pK6eBGHs_cduZfa-15" value="" style="shape=table;startSize=0;container=1;collapsible=1;childLayout=tableLayout;fixedRows=1;rowLines=0;fontStyle=0;align=center;resizeLast=1;strokeColor=none;fillColor=none;collapsible=0;rounded=1;" parent="1" vertex="1">
          <mxGeometry x="270" y="460" width="180" height="40" as="geometry" />
        </mxCell>
        <mxCell id="t8yH6pK6eBGHs_cduZfa-16" value="" style="shape=tableRow;horizontal=0;startSize=0;swimlaneHead=0;swimlaneBody=0;fillColor=none;collapsible=0;dropTarget=0;points=[[0,0.5],[1,0.5]];portConstraint=eastwest;top=0;left=0;right=0;bottom=1;rounded=1;" parent="t8yH6pK6eBGHs_cduZfa-15" vertex="1">
          <mxGeometry width="180" height="40" as="geometry" />
        </mxCell>
        <mxCell id="t8yH6pK6eBGHs_cduZfa-17" value="PK" style="shape=partialRectangle;connectable=0;fillColor=none;top=0;left=0;bottom=0;right=0;fontStyle=1;overflow=hidden;rounded=1;" parent="t8yH6pK6eBGHs_cduZfa-16" vertex="1">
          <mxGeometry width="30" height="40" as="geometry">
            <mxRectangle width="30" height="40" as="alternateBounds" />
          </mxGeometry>
        </mxCell>
        <mxCell id="t8yH6pK6eBGHs_cduZfa-18" value="UniqueID" style="shape=partialRectangle;connectable=0;fillColor=none;top=0;left=0;bottom=0;right=0;align=left;spacingLeft=6;fontStyle=5;overflow=hidden;rounded=1;" parent="t8yH6pK6eBGHs_cduZfa-16" vertex="1">
          <mxGeometry x="30" width="150" height="40" as="geometry">
            <mxRectangle width="150" height="40" as="alternateBounds" />
          </mxGeometry>
        </mxCell>
        <mxCell id="t8yH6pK6eBGHs_cduZfa-19" value="" style="endArrow=none;html=1;dashed=1;dashPattern=1 2;" parent="1" edge="1">
          <mxGeometry relative="1" as="geometry">
            <mxPoint x="50" y="240" as="sourcePoint" />
            <mxPoint x="210" y="240" as="targetPoint" />
          </mxGeometry>
        </mxCell>
        <mxCell id="t8yH6pK6eBGHs_cduZfa-20" value="N" style="resizable=0;html=1;align=right;verticalAlign=bottom;rounded=1;" parent="t8yH6pK6eBGHs_cduZfa-19" connectable="0" vertex="1">
          <mxGeometry x="1" relative="1" as="geometry" />
        </mxCell>
        <mxCell id="t8yH6pK6eBGHs_cduZfa-21" value="" style="endArrow=none;html=1;dashed=1;dashPattern=1 2;" parent="1" edge="1">
          <mxGeometry relative="1" as="geometry">
            <mxPoint x="330" y="430" as="sourcePoint" />
            <mxPoint x="490" y="430" as="targetPoint" />
          </mxGeometry>
        </mxCell>
        <mxCell id="t8yH6pK6eBGHs_cduZfa-22" value="1" style="resizable=0;html=1;align=right;verticalAlign=bottom;rounded=1;" parent="t8yH6pK6eBGHs_cduZfa-21" connectable="0" vertex="1">
          <mxGeometry x="1" relative="1" as="geometry" />
        </mxCell>
        <mxCell id="t8yH6pK6eBGHs_cduZfa-23" value="" style="endArrow=none;html=1;targetPerimeterSpacing=34;" parent="1" edge="1">
          <mxGeometry relative="1" as="geometry">
            <mxPoint x="120" y="539.5" as="sourcePoint" />
            <mxPoint x="280" y="539.5" as="targetPoint" />
          </mxGeometry>
        </mxCell>
        <mxCell id="t8yH6pK6eBGHs_cduZfa-24" value="M" style="resizable=0;html=1;align=left;verticalAlign=bottom;rounded=1;" parent="t8yH6pK6eBGHs_cduZfa-23" connectable="0" vertex="1">
          <mxGeometry x="-1" relative="1" as="geometry" />
        </mxCell>
        <mxCell id="t8yH6pK6eBGHs_cduZfa-25" value="N" style="resizable=0;html=1;align=right;verticalAlign=bottom;rounded=1;" parent="t8yH6pK6eBGHs_cduZfa-23" connectable="0" vertex="1">
          <mxGeometry x="1" relative="1" as="geometry">
            <mxPoint y="40" as="offset" />
          </mxGeometry>
        </mxCell>
        <mxCell id="t8yH6pK6eBGHs_cduZfa-26" value="" style="whiteSpace=wrap;html=1;align=left;strokeWidth=1;spacingTop=0;dashed=0;spacingLeft=6;rounded=1;" parent="1" vertex="1">
          <mxGeometry x="485" y="225" width="120" height="60" as="geometry" />
        </mxCell>
        <mxCell id="t8yH6pK6eBGHs_cduZfa-28" value="Entity" style="shape=ext;margin=3;double=1;whiteSpace=wrap;html=1;align=center;rounded=1;" parent="1" vertex="1">
          <mxGeometry x="70" y="480" width="100" height="40" as="geometry" />
        </mxCell>
        <mxCell id="t8yH6pK6eBGHs_cduZfa-33" value="" style="whiteSpace=wrap;html=1;rounded=1;" parent="1" vertex="1">
          <mxGeometry x="440" y="340" width="120" height="60" as="geometry" />
        </mxCell>
        <mxCell id="t8yH6pK6eBGHs_cduZfa-35" value="" style="rhombus;whiteSpace=wrap;html=1;rounded=1;rotation=45;" parent="1" vertex="1">
          <mxGeometry x="460" y="570" width="80" height="80" as="geometry" />
        </mxCell>
        <mxCell id="t8yH6pK6eBGHs_cduZfa-37" value="" style="line;strokeWidth=1;rotatable=0;dashed=0;labelPosition=right;align=left;verticalAlign=middle;spacingTop=0;spacingLeft=6;points=[];portConstraint=eastwest;rounded=1;" parent="1" vertex="1">
          <mxGeometry x="380" y="430" width="60" height="10" as="geometry" />
        </mxCell>
        <mxCell id="t8yH6pK6eBGHs_cduZfa-38" value="" style="line;strokeWidth=1;rotatable=0;dashed=0;labelPosition=right;align=left;verticalAlign=middle;spacingTop=0;spacingLeft=6;points=[];portConstraint=eastwest;rounded=1;" parent="1" vertex="1">
          <mxGeometry x="110" y="375" width="60" height="10" as="geometry" />
        </mxCell>
        <mxCell id="t8yH6pK6eBGHs_cduZfa-41" value="" style="endArrow=none;html=1;rounded=0;" parent="1" edge="1">
          <mxGeometry relative="1" as="geometry">
            <mxPoint x="50" y="410" as="sourcePoint" />
            <mxPoint x="210" y="410" as="targetPoint" />
          </mxGeometry>
        </mxCell>
        <mxCell id="t8yH6pK6eBGHs_cduZfa-42" value="N" style="resizable=0;html=1;align=right;verticalAlign=bottom;rounded=1;" parent="t8yH6pK6eBGHs_cduZfa-41" connectable="0" vertex="1">
          <mxGeometry x="1" relative="1" as="geometry" />
        </mxCell>
        <mxCell id="t8yH6pK6eBGHs_cduZfa-43" value="" style="endArrow=none;html=1;rounded=0;" parent="1" edge="1">
          <mxGeometry relative="1" as="geometry">
            <mxPoint x="80" y="580" as="sourcePoint" />
            <mxPoint x="240" y="580" as="targetPoint" />
          </mxGeometry>
        </mxCell>
        <mxCell id="t8yH6pK6eBGHs_cduZfa-44" value="M" style="resizable=0;html=1;align=left;verticalAlign=bottom;rounded=1;" parent="t8yH6pK6eBGHs_cduZfa-43" connectable="0" vertex="1">
          <mxGeometry x="-1" relative="1" as="geometry" />
        </mxCell>
        <mxCell id="t8yH6pK6eBGHs_cduZfa-45" value="N" style="resizable=0;html=1;align=right;verticalAlign=bottom;rounded=1;" parent="t8yH6pK6eBGHs_cduZfa-43" connectable="0" vertex="1">
          <mxGeometry x="1" relative="1" as="geometry" />
        </mxCell>
        <mxCell id="t8yH6pK6eBGHs_cduZfa-46" value="" style="endArrow=none;html=1;rounded=0;spacing=16;fontStyle=1;shape=link;" parent="1" edge="1">
          <mxGeometry relative="1" as="geometry">
            <mxPoint x="300" y="650" as="sourcePoint" />
            <mxPoint x="460" y="870" as="targetPoint" />
          </mxGeometry>
        </mxCell>
        <mxCell id="t8yH6pK6eBGHs_cduZfa-48" value="Entity" style="shape=ext;margin=3;double=1;whiteSpace=wrap;html=1;align=center;rounded=1;" parent="1" vertex="1">
          <mxGeometry x="550" y="810" width="100" height="40" as="geometry" />
        </mxCell>
        <mxCell id="t8yH6pK6eBGHs_cduZfa-50" value="" style="edgeStyle=orthogonalEdgeStyle;shape=link;rounded=1;orthogonalLoop=1;jettySize=auto;html=1;" parent="1" source="t8yH6pK6eBGHs_cduZfa-49" target="t8yH6pK6eBGHs_cduZfa-48" edge="1">
          <mxGeometry relative="1" as="geometry" />
        </mxCell>
        <mxCell id="t8yH6pK6eBGHs_cduZfa-49" value="Relationship" style="shape=rhombus;double=1;perimeter=rhombusPerimeter;whiteSpace=wrap;html=1;align=center;rounded=1;" parent="1" vertex="1">
          <mxGeometry x="540" y="670" width="120" height="60" as="geometry" />
        </mxCell>
        <mxCell id="t8yH6pK6eBGHs_cduZfa-51" value="Entity" style="whiteSpace=wrap;html=1;align=center;rounded=1;" parent="1" vertex="1">
          <mxGeometry x="50" y="800" width="100" height="40" as="geometry" />
        </mxCell>
        <mxCell id="t8yH6pK6eBGHs_cduZfa-52" value="Attribute" style="ellipse;shape=doubleEllipse;margin=3;whiteSpace=wrap;html=1;align=center;rounded=1;" parent="1" vertex="1">
          <mxGeometry x="310" y="800" width="100" height="40" as="geometry" />
        </mxCell>
        <mxCell id="t8yH6pK6eBGHs_cduZfa-54" value="" style="endArrow=none;html=1;rounded=0;" parent="1" edge="1">
          <mxGeometry relative="1" as="geometry">
            <mxPoint x="150" y="819.5" as="sourcePoint" />
            <mxPoint x="310" y="819.5" as="targetPoint" />
          </mxGeometry>
        </mxCell>
        <mxCell id="t8yH6pK6eBGHs_cduZfa-55" value="M" style="resizable=0;html=1;align=left;verticalAlign=bottom;rounded=1;" parent="t8yH6pK6eBGHs_cduZfa-54" connectable="0" vertex="1">
          <mxGeometry x="-1" relative="1" as="geometry" />
        </mxCell>
        <mxCell id="t8yH6pK6eBGHs_cduZfa-56" value="N" style="resizable=0;html=1;align=right;verticalAlign=bottom;rounded=1;" parent="t8yH6pK6eBGHs_cduZfa-54" connectable="0" vertex="1">
          <mxGeometry x="1" relative="1" as="geometry" />
        </mxCell>
        <mxCell id="J0mqz6L65_6D-I13sTj3-1" value="Attribute" style="ellipse;whiteSpace=wrap;html=1;align=center;fontStyle=4;rounded=1;" vertex="1" parent="1">
          <mxGeometry x="360" y="270" width="100" height="40" as="geometry" />
        </mxCell>
      </root>
    </mxGraphModel>
  </diagram>
</mxfile>
